<?xml version="1.0" encoding="utf-8"?>
<!-- Generator: Adobe Illustrator 27.5.0, SVG Export Plug-In . SVG Version: 6.00 Build 0)  -->
<svg version="1.1" xmlns="http://www.w3.org/2000/svg" xmlns:xlink="http://www.w3.org/1999/xlink" x="0px" y="0px"
	 viewBox="0 0 750 500" style="enable-background:new 0 0 750 500;" xml:space="preserve">
<g id="BACKGROUND">
	<rect x="0.002" y="0.003" style="fill:#FFFEF5;" width="750" height="500"/>
</g>
<g id="OBJECTS">
	<g>
		<g>
			<g>
				<g>
					<path style="fill:#008C2F;" d="M467.585,209.161c0,0,0.443,0.005,1.26,0.055c0.814,0.053,2.015,0.139,3.496,0.357
						c2.978,0.418,7.17,1.278,11.898,3.221c4.714,1.938,10.01,4.971,14.816,9.649c4.79,4.664,9.086,10.952,11.275,18.731
						c2.141,7.531,1.827,14.687,0.192,20.516c-1.608,5.857-4.573,10.397-7.599,13.536c-3.028,3.168-6.228,4.968-8.594,5.995
						c-2.429,1.013-4.099,1.296-4.518,1.378c1.337-3.184,2.308-6.524,2.922-9.929c0.793-0.628,1.592-1.286,2.393-1.974
						c0.766-0.691,1.534-1.411,2.304-2.16c1.521-1.531,3.031-3.161,4.408-4.942c2.789-3.538,5.288-7.511,7.368-11.88
						c-2.327,4.121-4.905,7.969-7.747,11.406c-0.73,0.854-1.449,1.691-2.174,2.503c-0.755,0.813-1.508,1.599-2.265,2.351
						c-1.355,1.298-2.68,2.513-4.112,3.623l0.19-1.181l0.135-1.188c0.306-2.873,0.411-5.772,0.267-8.66
						c1.272-1.553,2.52-3.21,3.664-4.951c0.613-0.907,1.182-1.828,1.742-2.776c0.571-0.951,1.114-1.925,1.609-2.925
						c2.057-3.992,3.777-8.34,5.029-12.997c-1.543,4.463-3.366,8.709-5.498,12.615c-1.066,1.941-2.198,3.84-3.395,5.622
						c-0.518,0.759-1.04,1.5-1.564,2.221c-0.537,0.723-1.1,1.43-1.651,2.115c-0.219-3.43-0.731-6.84-1.51-10.189l-0.177-0.714
						c0.806-1.449,1.493-2.929,2.204-4.479c0.692-1.623,1.401-3.311,1.961-5.041c1.181-3.462,2.128-7.109,2.746-10.89
						c-0.915,3.636-1.998,7.211-3.263,10.6l-0.981,2.513c-0.347,0.837-0.697,1.66-1.058,2.464c-0.573,1.297-1.236,2.576-1.869,3.799
						c-0.957-3.526-2.218-6.964-3.715-10.289c0.425-1.265,0.832-2.562,1.176-3.87c0.366-1.32,0.674-2.654,0.946-4.015
						c0.572-2.796,0.982-5.659,1.197-8.613l-0.81,4.24c-0.303,1.415-0.591,2.791-0.932,4.166c-0.606,2.431-1.259,4.811-2.021,7.119
						c-0.424-0.948-0.914-1.864-1.367-2.797c-0.493-0.913-0.968-1.836-1.486-2.735c-0.775-1.354-1.595-2.681-2.434-3.995
						c0.259-1.517,0.518-3.09,0.643-4.663c0.066-0.805,0.138-1.628,0.183-2.442c0.017-0.819,0.055-1.64,0.038-2.48
						c-0.152,0.802-0.262,1.607-0.404,2.399c-0.109,0.794-0.246,1.598-0.382,2.389c-0.218,1.31-0.427,2.618-0.665,3.917
						c-0.778-1.192-1.609-2.349-2.439-3.503c-1.988-2.675-4.11-5.246-6.336-7.719c2.139,2.549,4.167,5.188,6.053,7.921
						c0.842,1.217,1.676,2.439,2.46,3.693c-1.313-0.323-2.622-0.608-3.947-0.81c-1.483-0.25-2.988-0.431-4.475-0.514
						c1.45,0.368,2.921,0.695,4.386,1.058c1.486,0.358,2.937,0.731,4.445,1.116l0.157,0.043l1.146,1.914l1.094,1.943
						c0.52,0.926,1.002,1.872,1.494,2.812c0.455,0.959,0.952,1.897,1.37,2.873c-2.314-0.946-4.652-1.741-6.985-2.374
						c-1.268-0.345-2.561-0.642-3.812-0.922c-1.291-0.241-2.548-0.483-3.823-0.646c1.231,0.316,2.481,0.619,3.729,0.977
						c1.232,0.344,2.516,0.7,3.748,1.115c1.253,0.406,2.515,0.834,3.761,1.302c1.269,0.458,2.507,0.962,3.767,1.498l0.049,0.021
						c1.448,3.314,2.665,6.729,3.566,10.228c-1.277-0.77-2.513-1.501-3.8-2.164c-0.752-0.384-1.495-0.758-2.234-1.114
						c-0.756-0.352-1.518-0.685-2.273-0.992c-1.508-0.624-3.049-1.173-4.565-1.668c-1.543-0.468-3.057-0.901-4.611-1.232
						c1.497,0.47,2.977,0.967,4.479,1.537c1.475,0.557,3.001,1.162,4.465,1.848c1.498,0.687,2.957,1.399,4.448,2.197
						c1.437,0.804,2.928,1.665,4.337,2.618l0.125,0.521c0.812,3.366,1.353,6.799,1.592,10.255c-0.685-0.629-1.364-1.236-2.05-1.822
						c-0.709-0.584-1.415-1.147-2.117-1.689c-1.614-1.211-3.222-2.338-4.916-3.313c-0.824-0.495-1.676-0.958-2.532-1.396
						c-0.846-0.44-1.687-0.855-2.559-1.238c-1.717-0.758-3.463-1.41-5.206-1.951c1.669,0.663,3.369,1.372,5.027,2.221
						c1.671,0.825,3.345,1.754,4.962,2.793c0.825,0.521,1.635,1.06,2.431,1.625c0.808,0.563,1.623,1.149,2.393,1.771
						c1.587,1.235,3.106,2.58,4.598,4.036l0.034,0.034c0.161,2.793,0.072,5.598-0.201,8.381l-0.122,1.274l-0.179,1.267
						c-1.041-1.536-2.209-2.989-3.369-4.342c-0.672-0.75-1.34-1.475-2.01-2.168c-0.699-0.697-1.408-1.364-2.12-1.994
						c-1.458-1.269-2.928-2.429-4.468-3.488c-0.756-0.52-1.545-1.019-2.335-1.49c-0.782-0.471-1.564-0.915-2.387-1.326
						c0.775,0.464,1.515,0.945,2.266,1.451l1.133,0.777l1.093,0.816c0.743,0.551,1.486,1.127,2.188,1.729
						c0.71,0.602,1.449,1.233,2.12,1.886c1.388,1.318,2.736,2.705,4.029,4.223c0.626,0.754,1.255,1.538,1.875,2.352
						c0.587,0.808,1.171,1.647,1.749,2.517l0.087,0.13c-0.548,3.319-1.415,6.59-2.624,9.738c-0.273-0.346-1.272-1.749-2.634-3.765
						c-1.415-2.035-3.167-4.631-5.141-7.422c-1.961-2.8-4.01-5.731-5.879-8.826c-1.851-3.107-3.421-6.38-4.541-10.327
						c-1.109-3.983-1.689-8.402-2.108-13.022c-0.414-4.618-0.724-9.452-0.991-13.9c-0.262-4.445-0.485-8.474-0.609-11.386
						c-0.049-1.467-0.089-2.641-0.116-3.449C467.589,209.608,467.585,209.161,467.585,209.161z"/>
					<path style="fill:#00761E;" d="M492.153,272.653c-0.579-0.87-1.162-1.709-1.749-2.517c-0.619-0.813-1.248-1.598-1.875-2.352
						c-1.293-1.518-2.64-2.905-4.029-4.223c-0.671-0.653-1.41-1.284-2.12-1.886c-0.701-0.601-1.445-1.178-2.188-1.729l-1.093-0.816
						l-1.133-0.777c-0.751-0.505-1.491-0.987-2.266-1.451c0.823,0.411,1.605,0.855,2.387,1.326c0.79,0.471,1.579,0.97,2.335,1.49
						c1.54,1.059,3.011,2.219,4.468,3.488c0.712,0.63,1.421,1.297,2.12,1.994c0.67,0.694,1.338,1.419,2.01,2.168
						c1.16,1.354,2.328,2.806,3.369,4.342l0.179-1.267l0.122-1.274c0.273-2.783,0.362-5.588,0.201-8.381l-0.034-0.034
						c-1.492-1.456-3.011-2.802-4.598-4.036c-0.769-0.622-1.584-1.208-2.393-1.771c-0.797-0.565-1.606-1.104-2.431-1.625
						c-1.618-1.039-3.292-1.968-4.962-2.793c-1.658-0.849-3.359-1.558-5.027-2.221c1.742,0.541,3.489,1.193,5.206,1.951
						c0.872,0.383,1.713,0.798,2.559,1.238c0.856,0.438,1.708,0.902,2.532,1.396c1.694,0.975,3.302,2.102,4.916,3.313
						c0.703,0.542,1.409,1.106,2.117,1.689c0.686,0.586,1.365,1.193,2.05,1.822c-0.239-3.456-0.78-6.889-1.592-10.255l-0.125-0.521
						c-1.409-0.953-2.9-1.813-4.337-2.618c-1.492-0.799-2.95-1.51-4.448-2.197c-1.464-0.687-2.99-1.291-4.465-1.848
						c-1.502-0.57-2.982-1.066-4.479-1.537c1.553,0.331,3.068,0.764,4.611,1.232c1.516,0.495,3.058,1.044,4.565,1.668
						c0.755,0.307,1.517,0.64,2.273,0.992c0.738,0.355,1.482,0.73,2.234,1.114c1.287,0.663,2.523,1.393,3.8,2.164
						c-0.901-3.499-2.118-6.914-3.566-10.228l-0.049-0.021c-1.26-0.536-2.498-1.04-3.767-1.498
						c-1.246-0.468-2.508-0.895-3.761-1.302c-1.232-0.416-2.516-0.772-3.748-1.115c-1.248-0.359-2.498-0.661-3.729-0.977
						c1.274,0.163,2.531,0.404,3.823,0.646c1.252,0.28,2.545,0.577,3.812,0.922c2.332,0.633,4.671,1.428,6.985,2.374
						c-0.417-0.976-0.915-1.915-1.37-2.873c-0.492-0.94-0.974-1.886-1.494-2.812l-1.094-1.943l-1.146-1.914l-0.157-0.043
						c-1.507-0.385-2.959-0.758-4.445-1.116c-1.465-0.363-2.936-0.689-4.386-1.058c1.487,0.083,2.992,0.264,4.475,0.514
						c1.324,0.202,2.633,0.487,3.947,0.81c-0.784-1.254-1.618-2.477-2.46-3.693c-1.887-2.733-3.915-5.373-6.053-7.921
						c2.226,2.472,4.348,5.043,6.336,7.719c0.831,1.155,1.661,2.311,2.439,3.503c0.238-1.3,0.447-2.608,0.665-3.917
						c0.136-0.791,0.272-1.595,0.382-2.389c0.141-0.792,0.251-1.597,0.404-2.399c0.017,0.839-0.021,1.66-0.038,2.48
						c-0.045,0.813-0.117,1.636-0.183,2.442c-0.125,1.573-0.384,3.146-0.643,4.663c0.838,1.314,1.659,2.641,2.434,3.995
						c0.517,0.899,0.992,1.822,1.486,2.735c0.454,0.933,0.943,1.849,1.367,2.797c0.762-2.308,1.415-4.688,2.021-7.119
						c0.341-1.375,0.629-2.752,0.932-4.166l0.81-4.24c-0.215,2.954-0.624,5.817-1.197,8.613c-0.271,1.362-0.58,2.695-0.946,4.015
						c-0.344,1.309-0.751,2.605-1.176,3.87c1.497,3.326,2.758,6.763,3.715,10.289c0.633-1.223,1.295-2.501,1.869-3.799
						c0.361-0.804,0.711-1.627,1.058-2.464l0.981-2.513c1.265-3.389,2.348-6.964,3.263-10.6c-0.617,3.782-1.564,7.429-2.746,10.89
						c-0.559,1.729-1.269,3.417-1.961,5.041c-0.711,1.55-1.397,3.03-2.204,4.479l0.177,0.714c0.778,3.348,1.291,6.759,1.51,10.189
						c0.551-0.686,1.114-1.392,1.651-2.115c0.524-0.721,1.045-1.462,1.564-2.221c1.197-1.782,2.329-3.68,3.395-5.622
						c2.132-3.907,3.955-8.152,5.498-12.615c-1.253,4.657-2.973,9.005-5.029,12.997c-0.495,1.001-1.038,1.975-1.609,2.925
						c-0.56,0.948-1.128,1.869-1.742,2.776c-1.145,1.741-2.393,3.398-3.664,4.951c0.144,2.888,0.039,5.787-0.267,8.66l-0.135,1.188
						l-0.19,1.181c1.432-1.11,2.757-2.325,4.112-3.623c0.756-0.752,1.51-1.538,2.265-2.351c0.726-0.812,1.444-1.648,2.174-2.503
						c2.842-3.437,5.421-7.285,7.747-11.406c-2.079,4.369-4.579,8.342-7.368,11.88c-1.377,1.781-2.887,3.411-4.408,4.942
						c-0.77,0.749-1.538,1.469-2.304,2.16c-0.801,0.688-1.6,1.346-2.393,1.974c-0.614,3.405-1.585,6.745-2.922,9.929
						c-0.07,0.012-0.119,0.02-0.119,0.02s-0.031-0.04-0.075-0.098c1.209-3.148,2.076-6.419,2.624-9.738L492.153,272.653z"/>
				</g>
				<path style="fill:#00761E;" d="M482.194,290.276c6.695-3.554,11.664-21.19,11.074-20.318c-1.386,8.3-4.03,17.503-10.294,21.749
					C482.106,292.295,481.265,290.769,482.194,290.276z"/>
			</g>
			<g>
				<g>
					<path style="fill:#009C3E;" d="M517.805,186.772c0,0-0.83,1.691-2.013,4.405c-1.198,2.644-2.869,6.33-4.79,10.57
						c-1.86,4.111-3.897,8.562-5.654,13.034c-1.762,4.49-3.181,8.993-3.798,13.721c-0.318,2.311-0.365,4.511-0.305,6.628
						c0.019,0.53,0.055,1.058,0.107,1.583c0.041,0.522,0.074,1.035,0.135,1.55c0.119,1.034,0.291,2.054,0.478,3.012
						c0.764,3.825,2.053,7.104,3.205,10.271c1.155,3.116,2.139,6.142,2.732,8.56c0.597,2.407,0.912,4.164,1.024,4.609
						c2.525-2.386,4.547-5.249,6.172-8.3c-0.553-2.019-1.258-3.933-2.066-5.775c-0.816-1.876-1.746-3.653-2.701-5.408
						c-0.968-1.748-1.992-3.45-3.067-5.136c-0.537-0.838-1.05-1.652-1.607-2.462l-1.682-2.384c1.248,1.492,2.477,3.068,3.591,4.696
						c1.144,1.641,2.247,3.343,3.263,5.065c1.035,1.724,1.965,3.523,2.825,5.396c0.723,1.608,1.395,3.291,1.944,5.042
						c0.358-0.713,0.688-1.439,1.01-2.169c1.164-2.648,2.098-5.395,2.891-8.182c-1.009-1.844-1.979-3.605-3.071-5.326
						c-1.122-1.783-2.262-3.476-3.471-5.147c-2.356-3.307-4.987-6.372-7.605-9.191c2.858,2.656,5.597,5.643,8.071,8.892
						c0.626,0.808,1.248,1.644,1.848,2.496c0.579,0.848,1.152,1.716,1.727,2.599c0.993,1.505,1.874,3.038,2.774,4.631
						c0.942-3.316,1.58-6.708,2.149-10.102l0.107-0.729c-0.994-1.376-1.939-2.7-3.001-3.994c-1.105-1.369-2.185-2.668-3.338-3.96
						c-1.144-1.281-2.262-2.513-3.464-3.707c-1.176-1.193-2.342-2.343-3.565-3.458c0.651,0.509,1.316,1.034,1.95,1.573
						c0.626,0.539,1.251,1.093,1.873,1.662c0.618,0.568,1.252,1.152,1.853,1.747c0.595,0.595,1.189,1.204,1.781,1.826
						c1.216,1.236,2.322,2.549,3.436,3.895l1.348,1.659l1.283,1.7c0.296-1.807,0.44-3.633,0.634-5.453
						c0.122-1.826,0.268-3.652,0.29-5.483c-0.923-1.008-1.856-1.986-2.833-2.941c-0.973-0.954-1.897-1.885-2.886-2.793
						c-1.012-0.929-2.02-1.83-3.016-2.708c-1.022-0.854-2.044-1.708-3.068-2.564c1.106,0.726,2.204,1.498,3.298,2.309
						c1.075,0.813,2.113,1.667,3.169,2.554c0.949,0.783,1.835,1.601,2.726,2.447c0.88,0.846,1.802,1.722,2.641,2.623
						c0.011-2.083,0.012-4.17-0.118-6.251c-0.042-1.568-0.189-3.13-0.317-4.693c-1.196-1.033-2.485-2.018-3.68-3.013
						c-0.609-0.509-1.231-1.006-1.875-1.488c-0.619-0.506-1.252-0.98-1.854-1.484c0.701,0.368,1.376,0.784,2.068,1.191
						c0.673,0.429,1.364,0.865,2.012,1.319c1.09,0.753,2.16,1.567,3.23,2.416c-0.188-1.42-0.311-2.85-0.553-4.263
						c-0.454-3.329-1.154-6.62-1.947-9.89c0.911,3.237,1.732,6.509,2.309,9.831c0.281,1.476,0.443,2.971,0.671,4.457l2.562-3.363
						c0.995-1.291,1.908-2.6,2.927-3.903c-0.764,1.5-1.557,2.902-2.471,4.272c-0.899,1.374-1.791,2.665-2.798,3.927l-0.105,0.133
						c0.157,1.504,0.324,3.007,0.396,4.518c0.065,1.079,0.134,2.157,0.137,3.238c0.007,1.08,0.072,2.161,0.031,3.241
						c0.943-0.917,1.804-1.861,2.707-2.825c0.894-0.964,1.805-1.95,2.661-2.951c0.945-1.09,1.906-2.212,2.831-3.362
						c0.927-1.129,1.829-2.308,2.765-3.482c-0.804,1.3-1.649,2.533-2.48,3.754c-0.892,1.204-1.787,2.377-2.685,3.518
						c-1.848,2.283-3.749,4.402-5.781,6.393l-0.039,0.039c-0.005,1.844-0.152,3.681-0.253,5.522
						c-0.187,1.833-0.323,3.673-0.607,5.495l1.821-1.426c0.596-0.486,1.178-0.983,1.769-1.488c1.386-1.174,2.751-2.423,4.085-3.68
						l2.021-1.934c0.668-0.657,1.304-1.328,1.957-2.011c0.658-0.672,1.312-1.361,1.967-2.06l1.911-2.12
						c-1.137,1.565-2.389,3.04-3.625,4.486c-1.229,1.425-2.554,2.796-3.852,4.118c-1.271,1.333-2.689,2.561-4.037,3.766
						c-1.332,1.197-2.784,2.33-4.164,3.421l-0.075,0.542c-0.608,3.482-1.312,6.951-2.303,10.345
						c1.634-0.968,3.327-1.983,4.919-3.082c0.911-0.612,1.821-1.249,2.736-1.9l2.68-2.008c1.821-1.363,3.535-2.815,5.29-4.336
						c1.76-1.497,3.42-3.1,5.15-4.726c-1.63,1.783-3.231,3.454-4.936,5.063c-0.855,0.793-1.708,1.567-2.56,2.323
						c-0.852,0.756-1.755,1.486-2.627,2.202c-1.726,1.444-3.577,2.744-5.38,4c-1.806,1.25-3.698,2.403-5.522,3.494l-0.043,0.025
						c-0.81,2.737-1.761,5.438-2.934,8.047c-0.364,0.793-0.752,1.573-1.157,2.346c1.839-0.615,3.675-1.376,5.502-2.243
						c2.01-0.955,3.988-2.064,5.96-3.201c1.978-1.151,3.886-2.367,5.787-3.647c1.946-1.251,3.8-2.62,5.694-4.013
						c-0.906,0.781-1.816,1.531-2.725,2.26c-0.914,0.728-1.871,1.426-2.798,2.116c-1.86,1.347-3.773,2.642-5.719,3.861
						c-1.941,1.229-3.951,2.321-5.966,3.307c-2.015,0.98-4.064,1.828-6.116,2.48l-0.153,0.049c-1.69,2.99-3.79,5.773-6.364,8.052
						c0.428,0.115,2.131,0.666,4.917,0.671c2.763,0.004,6.634-0.664,10.832-2.854c4.163-2.151,8.519-5.831,11.951-10.654
						c0.864-1.2,1.646-2.456,2.388-3.79c0.37-0.669,0.746-1.357,1.087-2.07c0.33-0.715,0.649-1.45,0.957-2.206
						c1.246-3.02,2.13-6.397,2.62-10.06c0.98-7.515-0.226-14.873-2.572-21.136c-2.349-6.29-5.855-11.494-9.395-15.401
						c-1.747-1.965-3.57-3.603-5.205-4.97c-1.677-1.357-3.226-2.431-4.523-3.267C519.461,187.499,517.805,186.772,517.805,186.772z"
						/>
					<path style="fill:#008725;" d="M515.591,256.779c2.052-0.652,4.101-1.5,6.116-2.48c2.015-0.986,4.026-2.077,5.966-3.307
						c1.946-1.219,3.858-2.514,5.719-3.861c0.926-0.691,1.884-1.388,2.798-2.116c0.909-0.729,1.819-1.479,2.725-2.26
						c-1.894,1.393-3.748,2.762-5.694,4.013c-1.9,1.281-3.809,2.496-5.787,3.647c-1.972,1.137-3.95,2.247-5.96,3.201
						c-1.827,0.867-3.663,1.628-5.502,2.243c0.405-0.772,0.794-1.553,1.157-2.346c1.173-2.609,2.124-5.311,2.934-8.047l0.043-0.025
						c1.824-1.091,3.716-2.244,5.522-3.494c1.803-1.256,3.654-2.556,5.38-4c0.872-0.716,1.775-1.446,2.627-2.202
						c0.852-0.756,1.706-1.53,2.56-2.323c1.705-1.609,3.306-3.28,4.936-5.063c-1.73,1.627-3.391,3.229-5.15,4.726
						c-1.755,1.521-3.469,2.973-5.29,4.336l-2.68,2.008c-0.915,0.652-1.826,1.288-2.736,1.9c-1.592,1.1-3.285,2.115-4.919,3.082
						c0.991-3.394,1.695-6.864,2.303-10.345l0.075-0.542c1.38-1.091,2.832-2.224,4.164-3.421c1.347-1.205,2.765-2.433,4.037-3.766
						c1.299-1.322,2.624-2.694,3.852-4.118c1.236-1.447,2.488-2.922,3.625-4.486l-1.911,2.12c-0.655,0.699-1.308,1.389-1.967,2.06
						c-0.653,0.683-1.289,1.354-1.957,2.011l-2.021,1.934c-1.335,1.257-2.699,2.505-4.085,3.68
						c-0.591,0.505-1.172,1.002-1.769,1.488l-1.821,1.426c0.284-1.822,0.419-3.662,0.607-5.495c0.1-1.84,0.248-3.678,0.253-5.522
						l0.039-0.039c2.032-1.991,3.933-4.11,5.781-6.393c0.898-1.142,1.793-2.315,2.685-3.518c0.832-1.221,1.677-2.454,2.48-3.754
						c-0.935,1.174-1.838,2.353-2.765,3.482c-0.924,1.151-1.885,2.273-2.831,3.362c-0.856,1.001-1.767,1.987-2.661,2.951
						c-0.904,0.964-1.764,1.907-2.707,2.825c0.041-1.08-0.024-2.161-0.031-3.241c-0.004-1.081-0.073-2.159-0.137-3.238
						c-0.073-1.511-0.239-3.015-0.396-4.518l0.105-0.133c1.007-1.263,1.899-2.553,2.798-3.927c0.914-1.37,1.708-2.772,2.471-4.272
						c-1.019,1.303-1.932,2.612-2.927,3.903l-2.562,3.363c-0.227-1.486-0.389-2.981-0.671-4.457
						c-0.577-3.322-1.398-6.594-2.309-9.831c0.793,3.27,1.493,6.561,1.947,9.89c0.242,1.413,0.365,2.843,0.553,4.263
						c-1.069-0.848-2.139-1.663-3.23-2.416c-0.648-0.454-1.339-0.891-2.012-1.319c-0.692-0.406-1.367-0.823-2.068-1.191
						c0.602,0.503,1.234,0.978,1.854,1.484c0.644,0.482,1.265,0.979,1.875,1.488c1.195,0.995,2.484,1.98,3.68,3.013
						c0.128,1.564,0.275,3.125,0.317,4.693c0.129,2.081,0.129,4.168,0.118,6.251c-0.839-0.901-1.761-1.776-2.641-2.623
						c-0.89-0.847-1.776-1.664-2.726-2.447c-1.056-0.886-2.094-1.741-3.169-2.554c-1.094-0.811-2.192-1.583-3.298-2.309
						c1.024,0.855,2.046,1.71,3.068,2.564c0.996,0.878,2.004,1.779,3.016,2.708c0.99,0.909,1.914,1.84,2.886,2.793
						c0.977,0.954,1.91,1.933,2.833,2.941c-0.022,1.832-0.169,3.657-0.29,5.483c-0.194,1.82-0.338,3.646-0.634,5.453l-1.283-1.7
						l-1.348-1.659c-1.114-1.347-2.22-2.66-3.436-3.895c-0.593-0.622-1.186-1.23-1.781-1.826c-0.601-0.595-1.235-1.179-1.853-1.747
						c-0.622-0.568-1.247-1.123-1.873-1.662c-0.634-0.539-1.298-1.064-1.95-1.573c1.223,1.115,2.389,2.265,3.565,3.458
						c1.202,1.194,2.32,2.426,3.464,3.707c1.153,1.292,2.233,2.591,3.338,3.96c1.062,1.294,2.008,2.618,3.001,3.994l-0.107,0.729
						c-0.568,3.395-1.207,6.786-2.149,10.102c-0.9-1.593-1.781-3.126-2.774-4.631c-0.575-0.883-1.148-1.751-1.727-2.599
						c-0.601-0.852-1.222-1.688-1.848-2.496c-2.474-3.248-5.213-6.236-8.071-8.892c2.618,2.819,5.249,5.884,7.605,9.191
						c1.209,1.67,2.349,3.363,3.471,5.147c1.092,1.72,2.061,3.482,3.071,5.326c-0.793,2.786-1.727,5.534-2.891,8.182
						c-0.322,0.73-0.652,1.456-1.01,2.169c-0.548-1.751-1.221-3.434-1.944-5.042c-0.859-1.873-1.789-3.672-2.825-5.396
						c-1.016-1.722-2.12-3.424-3.263-5.065c-1.114-1.628-2.343-3.204-3.591-4.696l1.682,2.384c0.557,0.81,1.07,1.624,1.607,2.462
						c1.074,1.686,2.098,3.388,3.067,5.136c0.955,1.755,1.885,3.532,2.701,5.408c0.808,1.842,1.513,3.756,2.066,5.775
						c-1.625,3.051-3.646,5.915-6.172,8.3c0.017,0.074,0.028,0.126,0.028,0.126s0.049,0.015,0.121,0.037
						c2.574-2.278,4.674-5.062,6.364-8.052L515.591,256.779z"/>
				</g>
				<path style="fill:#008725;" d="M498.004,282.476c-0.022-7.58,13.188-20.277,12.697-19.345
					c-6.666,5.136-13.536,11.806-14.327,19.332C496.265,283.506,498.007,283.527,498.004,282.476z"/>
			</g>
		</g>
		<g>
			<g>
				<g>
					<path style="fill:#008C2F;" d="M91.987,330.044c0,0,0.155-0.415,0.48-1.166c0.327-0.747,0.816-1.848,1.524-3.167
						c1.405-2.658,3.639-6.309,7.074-10.095c3.426-3.775,8.078-7.724,14.111-10.653c6.014-2.92,13.388-4.822,21.448-4.237
						c7.811,0.546,14.433,3.275,19.359,6.794c4.962,3.503,8.223,7.834,10.147,11.748c1.95,3.924,2.555,7.546,2.717,10.12
						c0.127,2.628-0.174,4.296-0.24,4.717c-2.539-2.34-5.351-4.388-8.344-6.123c-0.321-0.96-0.669-1.934-1.043-2.921
						c-0.39-0.955-0.806-1.923-1.248-2.901c-0.923-1.95-1.942-3.924-3.149-5.825c-2.379-3.825-5.266-7.527-8.668-10.967
						c3.085,3.589,5.827,7.322,8.094,11.163c0.555,0.977,1.098,1.937,1.614,2.896c0.508,0.986,0.991,1.962,1.441,2.929
						c0.76,1.715,1.453,3.375,2.01,5.099l-1.046-0.581l-1.072-0.531c-2.598-1.265-5.288-2.349-8.054-3.195
						c-1.029-1.724-2.162-3.461-3.41-5.129c-0.645-0.885-1.317-1.733-2.019-2.582c-0.7-0.86-1.432-1.702-2.204-2.508
						c-3.055-3.291-6.56-6.387-10.514-9.148c3.673,2.968,7.046,6.126,9.995,9.459c1.464,1.663,2.865,3.373,4.133,5.104
						c0.538,0.746,1.057,1.488,1.557,2.226c0.497,0.751,0.97,1.52,1.428,2.272c-3.3-0.96-6.682-1.638-10.095-2.044l-0.732-0.076
						c-1.088-1.251-2.247-2.399-3.463-3.595c-1.292-1.202-2.638-2.444-4.074-3.557c-2.854-2.288-5.962-4.418-9.309-6.284
						c3.108,2.096,6.103,4.33,8.86,6.672l2.03,1.776c0.669,0.611,1.324,1.22,1.957,1.833c1.025,0.98,2.003,2.038,2.937,3.049
						c-3.641-0.299-7.303-0.281-10.939-0.004c-1.045-0.83-2.126-1.653-3.24-2.422c-1.117-0.793-2.266-1.536-3.455-2.254
						c-2.435-1.489-4.988-2.847-7.693-4.053l3.713,2.203c1.227,0.766,2.424,1.505,3.601,2.293c2.08,1.396,4.097,2.82,6.008,4.321
						c-1.035,0.077-2.063,0.226-3.095,0.335c-1.026,0.154-2.055,0.287-3.077,0.467c-1.537,0.268-3.063,0.589-4.584,0.931
						c-1.339-0.759-2.73-1.537-4.167-2.19c-0.735-0.336-1.485-0.683-2.234-1.002c-0.765-0.295-1.524-0.609-2.319-0.879
						c0.702,0.416,1.422,0.793,2.119,1.195c0.71,0.372,1.42,0.774,2.117,1.171c1.157,0.651,2.317,1.291,3.458,1.957
						c-1.386,0.327-2.756,0.714-4.124,1.103c-3.192,0.96-6.331,2.082-9.413,3.335c3.124-1.145,6.295-2.155,9.507-3
						c1.431-0.378,2.864-0.747,4.31-1.058c-0.75,1.125-1.463,2.26-2.103,3.436c-0.739,1.31-1.421,2.664-2.005,4.033
						c0.839-1.238,1.646-2.511,2.485-3.765c0.842-1.276,1.686-2.514,2.56-3.801l0.094-0.133l2.189-0.427l2.199-0.368
						c1.047-0.174,2.101-0.306,3.152-0.449c1.056-0.102,2.108-0.251,3.168-0.311c-1.676,1.854-3.219,3.783-4.606,5.762
						c-0.755,1.075-1.475,2.19-2.163,3.272c-0.666,1.132-1.321,2.232-1.907,3.375c0.716-1.05,1.425-2.123,2.186-3.174
						c0.742-1.042,1.514-2.128,2.323-3.146c0.808-1.04,1.639-2.081,2.503-3.094c0.862-1.038,1.757-2.031,2.69-3.034l0.036-0.039
						c3.609-0.235,7.235-0.219,10.831,0.123c-1.159,0.939-2.266,1.853-3.327,2.838c-0.617,0.577-1.222,1.148-1.807,1.722
						c-0.588,0.592-1.16,1.195-1.706,1.801c-1.099,1.206-2.139,2.469-3.121,3.726c-0.964,1.292-1.887,2.569-2.726,3.917
						c0.951-1.248,1.921-2.471,2.968-3.69c1.026-1.198,2.113-2.427,3.256-3.571c1.156-1.175,2.32-2.305,3.579-3.436
						c1.245-1.078,2.561-2.188,3.936-3.189l0.533,0.06c3.442,0.38,6.854,1.039,10.186,1.989c-0.824,0.431-1.626,0.863-2.41,1.309
						c-0.79,0.468-1.56,0.94-2.309,1.417c-1.688,1.106-3.294,2.236-4.787,3.497c-0.745,0.607-1.471,1.251-2.174,1.906
						c-0.701,0.646-1.378,1.296-2.034,1.986c-1.297,1.357-2.504,2.778-3.604,4.232c1.191-1.344,2.435-2.702,3.798-3.973
						c1.344-1.291,2.786-2.549,4.314-3.717c0.77-0.599,1.553-1.177,2.354-1.734c0.804-0.569,1.632-1.136,2.479-1.648
						c1.7-1.073,3.482-2.044,5.359-2.952l0.043-0.02c2.682,0.798,5.289,1.836,7.814,3.038l1.156,0.547l1.131,0.599
						c-1.799,0.457-3.562,1.061-5.229,1.693c-0.934,0.377-1.843,0.759-2.723,1.153c-0.893,0.421-1.761,0.861-2.596,1.316
						c-1.689,0.939-3.28,1.928-4.799,3.016c-0.746,0.534-1.483,1.107-2.195,1.69c-0.709,0.575-1.392,1.159-2.059,1.794
						c0.7-0.572,1.404-1.103,2.134-1.638l1.116-0.802l1.139-0.75c0.77-0.511,1.565-1.014,2.369-1.47
						c0.807-0.463,1.652-0.943,2.494-1.352c1.711-0.857,3.473-1.653,5.341-2.353c0.922-0.333,1.873-0.658,2.849-0.964
						c0.96-0.277,1.947-0.541,2.962-0.79l0.152-0.037c2.935,1.643,5.716,3.57,8.266,5.778c-0.418,0.139-2.077,0.601-4.436,1.197
						c-2.395,0.639-5.432,1.404-8.727,2.312c-3.3,0.893-6.753,1.823-10.298,2.528c-3.551,0.684-7.163,1.049-11.255,0.761
						c-4.123-0.311-8.476-1.268-12.963-2.444c-4.484-1.181-9.135-2.532-13.409-3.793c-4.27-1.264-8.135-2.425-10.915-3.298
						c-1.396-0.452-2.514-0.814-3.283-1.063C92.409,330.192,91.987,330.044,91.987,330.044z"/>
					<path style="fill:#00761E;" d="M160.05,328.522c-1.015,0.249-2.002,0.512-2.962,0.79c-0.976,0.306-1.927,0.631-2.849,0.964
						c-1.867,0.7-3.63,1.496-5.341,2.353c-0.842,0.409-1.687,0.889-2.494,1.352c-0.804,0.455-1.599,0.958-2.369,1.47l-1.139,0.75
						l-1.116,0.802c-0.731,0.535-1.435,1.066-2.134,1.638c0.666-0.634,1.35-1.219,2.059-1.794c0.712-0.583,1.449-1.156,2.195-1.69
						c1.519-1.088,3.11-2.077,4.799-3.016c0.834-0.455,1.703-0.895,2.596-1.316c0.88-0.394,1.789-0.776,2.723-1.153
						c1.667-0.631,3.43-1.236,5.229-1.693l-1.131-0.599l-1.156-0.547c-2.524-1.203-5.132-2.24-7.814-3.038l-0.043,0.02
						c-1.877,0.908-3.658,1.879-5.359,2.952c-0.846,0.512-1.674,1.08-2.479,1.648c-0.802,0.557-1.584,1.135-2.354,1.734
						c-1.527,1.168-2.969,2.427-4.314,3.717c-1.362,1.271-2.607,2.629-3.798,3.973c1.101-1.455,2.308-2.875,3.604-4.232
						c0.657-0.69,1.333-1.34,2.034-1.986c0.703-0.656,1.429-1.299,2.174-1.906c1.492-1.262,3.099-2.391,4.787-3.497
						c0.749-0.476,1.519-0.949,2.309-1.417c0.784-0.446,1.586-0.878,2.41-1.309c-3.331-0.95-6.744-1.609-10.186-1.989l-0.533-0.06
						c-1.375,1.001-2.691,2.111-3.936,3.189c-1.258,1.131-2.423,2.261-3.579,3.436c-1.143,1.143-2.231,2.373-3.256,3.571
						c-1.047,1.219-2.016,2.442-2.968,3.69c0.839-1.348,1.761-2.625,2.726-3.917c0.981-1.258,2.022-2.521,3.121-3.726
						c0.546-0.606,1.118-1.209,1.706-1.801c0.585-0.574,1.19-1.146,1.807-1.722c1.061-0.985,2.168-1.899,3.327-2.838
						c-3.597-0.342-7.222-0.358-10.831-0.123l-0.036,0.039c-0.932,1.003-1.828,1.995-2.69,3.034
						c-0.864,1.013-1.695,2.054-2.503,3.094c-0.81,1.017-1.581,2.104-2.323,3.146c-0.761,1.051-1.471,2.124-2.186,3.174
						c0.586-1.143,1.241-2.243,1.907-3.375c0.689-1.082,1.408-2.197,2.163-3.272c1.388-1.978,2.93-3.908,4.606-5.762
						c-1.06,0.061-2.112,0.209-3.168,0.311c-1.051,0.143-2.105,0.275-3.152,0.449l-2.199,0.368l-2.189,0.427l-0.094,0.133
						c-0.874,1.287-1.718,2.525-2.56,3.801c-0.839,1.254-1.646,2.527-2.485,3.765c0.584-1.37,1.265-2.724,2.005-4.033
						c0.64-1.177,1.353-2.311,2.103-3.436c-1.446,0.311-2.879,0.68-4.31,1.058c-3.212,0.845-6.384,1.855-9.507,3
						c3.082-1.253,6.221-2.375,9.413-3.335c1.368-0.389,2.738-0.777,4.124-1.103c-1.141-0.666-2.3-1.307-3.458-1.957
						c-0.697-0.396-1.407-0.798-2.117-1.171c-0.697-0.402-1.416-0.779-2.119-1.195c0.795,0.269,1.554,0.584,2.319,0.879
						c0.75,0.319,1.499,0.666,2.234,1.002c1.437,0.653,2.828,1.431,4.167,2.19c1.521-0.342,3.047-0.663,4.584-0.931
						c1.021-0.181,2.051-0.314,3.077-0.467c1.032-0.109,2.06-0.259,3.095-0.335c-1.911-1.501-3.928-2.925-6.008-4.321
						c-1.177-0.788-2.374-1.527-3.601-2.293l-3.713-2.203c2.705,1.206,5.258,2.565,7.693,4.053c1.188,0.718,2.337,1.461,3.455,2.254
						c1.114,0.769,2.195,1.592,3.24,2.422c3.636-0.277,7.298-0.295,10.939,0.004c-0.935-1.011-1.912-2.069-2.937-3.049
						c-0.633-0.613-1.288-1.222-1.957-1.833l-2.03-1.776c-2.757-2.342-5.751-4.576-8.86-6.672c3.346,1.866,6.455,3.997,9.309,6.284
						c1.436,1.114,2.782,2.355,4.074,3.557c1.216,1.196,2.375,2.344,3.463,3.595l0.732,0.076c3.413,0.406,6.795,1.083,10.095,2.044
						c-0.457-0.752-0.93-1.521-1.428-2.272c-0.5-0.738-1.019-1.48-1.557-2.226c-1.268-1.731-2.67-3.442-4.133-5.104
						c-2.949-3.333-6.322-6.491-9.995-9.459c3.954,2.761,7.459,5.857,10.514,9.148c0.773,0.806,1.504,1.647,2.204,2.508
						c0.702,0.849,1.374,1.696,2.019,2.582c1.248,1.668,2.382,3.405,3.41,5.129c2.765,0.846,5.455,1.931,8.054,3.195l1.072,0.531
						l1.046,0.581c-0.557-1.724-1.25-3.383-2.01-5.099c-0.45-0.967-0.934-1.943-1.441-2.929c-0.517-0.958-1.059-1.919-1.614-2.896
						c-2.266-3.841-5.009-7.574-8.094-11.163c3.402,3.441,6.289,7.142,8.668,10.967c1.207,1.901,2.227,3.875,3.149,5.825
						c0.443,0.979,0.859,1.946,1.248,2.901c0.374,0.987,0.722,1.962,1.043,2.921c2.993,1.735,5.805,3.783,8.344,6.123
						c-0.013,0.07-0.022,0.119-0.022,0.119s-0.048,0.015-0.118,0.037c-2.55-2.207-5.332-4.134-8.266-5.778L160.05,328.522z"/>
				</g>
				<path style="fill:#00761E;" d="M173.238,343.878c-1.067-7.505-15.963-18.173-15.344-17.321
					c7.335,4.125,15.091,9.74,16.955,17.075C175.107,344.647,173.386,344.919,173.238,343.878z"/>
			</g>
			<g>
				<g>
					<path style="fill:#009C3E;" d="M123.06,268.095c0,0,0.482,1.821,1.368,4.646c0.829,2.782,1.984,6.661,3.313,11.122
						c1.291,4.324,2.672,9.02,4.277,13.548c1.613,4.546,3.494,8.875,6.129,12.85c1.275,1.953,2.682,3.645,4.116,5.205
						c0.362,0.388,0.735,0.763,1.119,1.125c0.373,0.367,0.735,0.733,1.118,1.082c0.768,0.703,1.566,1.36,2.336,1.961
						c3.085,2.387,6.208,4.018,9.154,5.654c2.915,1.595,5.642,3.235,7.676,4.672c2.029,1.426,3.419,2.546,3.795,2.809
						c0.343-3.457-0.008-6.945-0.782-10.314c-1.741-1.162-3.529-2.145-5.346-3.006c-1.846-0.881-3.714-1.613-5.586-2.312
						c-1.877-0.685-3.767-1.299-5.683-1.868c-0.955-0.281-1.876-0.559-2.828-0.805l-2.833-0.697c1.92,0.308,3.882,0.692,5.79,1.191
						c1.939,0.489,3.889,1.051,5.785,1.685c1.912,0.623,3.794,1.372,5.671,2.223c1.6,0.74,3.211,1.57,4.773,2.532
						c-0.197-0.773-0.424-1.538-0.66-2.3c-0.857-2.763-1.954-5.449-3.182-8.073c-1.971-0.731-3.858-1.425-5.81-2.008
						c-2.016-0.611-3.987-1.142-5.995-1.61c-3.948-0.952-7.943-1.542-11.768-1.953c3.899,0.131,7.926,0.591,11.924,1.422
						c1.003,0.2,2.02,0.423,3.032,0.673c0.993,0.26,1.995,0.54,3.008,0.83c1.737,0.485,3.407,1.065,5.131,1.678
						c-1.463-3.121-3.205-6.101-5.001-9.037l-0.397-0.621c-1.652-0.387-3.234-0.767-4.885-1.048
						c-1.732-0.309-3.399-0.582-5.117-0.801c-1.704-0.217-3.355-0.414-5.046-0.527c-1.67-0.13-3.305-0.234-4.959-0.274
						c0.825-0.043,1.671-0.082,2.503-0.091c0.826-0.004,1.661,0.006,2.504,0.027c0.839,0.024,1.701,0.049,2.545,0.104
						c0.839,0.059,1.687,0.13,2.542,0.211c1.728,0.136,3.424,0.402,5.148,0.688l2.105,0.369l2.083,0.442
						c-0.962-1.558-2.05-3.032-3.097-4.533c-1.106-1.459-2.192-2.933-3.376-4.331c-1.358-0.155-2.704-0.283-4.067-0.363
						c-1.36-0.083-2.668-0.18-4.011-0.217c-1.374-0.038-2.725-0.057-4.053-0.067c-1.331,0.025-2.663,0.05-3.997,0.076
						c1.311-0.177,2.646-0.314,4.004-0.418c1.345-0.091,2.689-0.127,4.067-0.15c1.23-0.031,2.435,0.005,3.663,0.061
						c1.22,0.062,2.49,0.119,3.714,0.249c-1.357-1.58-2.725-3.156-4.187-4.643c-1.06-1.156-2.194-2.239-3.317-3.336
						c-1.58,0.004-3.2,0.106-4.754,0.138c-0.794,0.015-1.589,0.048-2.391,0.106c-0.799,0.024-1.588,0.081-2.372,0.095
						c0.77-0.182,1.553-0.31,2.342-0.457c0.789-0.117,1.597-0.241,2.384-0.323c1.317-0.146,2.659-0.233,4.022-0.294
						c-1.073-0.949-2.104-1.948-3.213-2.856c-2.526-2.216-5.212-4.242-7.955-6.191c2.811,1.847,5.576,3.779,8.19,5.909
						c1.18,0.93,2.283,1.953,3.429,2.926l-0.27-4.219c-0.095-1.627-0.264-3.214-0.349-4.866c0.407,1.633,0.727,3.213,0.935,4.846
						c0.222,1.627,0.395,3.186,0.462,4.8l0.008,0.169c1.105,1.032,2.216,2.058,3.262,3.152c0.756,0.772,1.515,1.541,2.227,2.355
						c0.713,0.811,1.471,1.585,2.148,2.427c0.111-1.311,0.142-2.587,0.192-3.908c0.043-1.315,0.085-2.656,0.075-3.973
						c-0.001-1.443-0.011-2.92-0.067-4.395c-0.041-1.46-0.132-2.942-0.196-4.442c0.245,1.508,0.416,2.993,0.589,4.461
						c0.116,1.493,0.209,2.966,0.28,4.417c0.102,2.936,0.056,5.782-0.173,8.618l-0.004,0.055c1.205,1.395,2.299,2.88,3.429,4.335
						c1.06,1.507,2.164,2.985,3.145,4.547l0.44-2.271c0.132-0.758,0.245-1.515,0.359-2.283c0.276-1.795,0.488-3.633,0.672-5.457
						l0.258-2.785c0.073-0.934,0.114-1.858,0.159-2.801c0.057-0.939,0.098-1.888,0.134-2.845l0.052-2.854
						c0.167,1.927,0.189,3.862,0.204,5.765c0.006,1.881-0.095,3.786-0.209,5.635c-0.086,1.84-0.352,3.697-0.579,5.49
						c-0.221,1.777-0.574,3.585-0.901,5.313l0.299,0.459c1.824,3.027,3.567,6.109,5.044,9.322c0.599-1.802,1.212-3.679,1.693-5.553
						c0.286-1.059,0.556-2.137,0.82-3.229L166,297.89c0.482-2.223,0.823-4.443,1.152-6.742c0.347-2.284,0.55-4.583,0.79-6.946
						c-0.062,2.415-0.175,4.726-0.407,7.059c-0.126,1.159-0.263,2.303-0.41,3.432c-0.147,1.129-0.351,2.273-0.54,3.385
						c-0.356,2.222-0.902,4.418-1.439,6.548c-0.544,2.128-1.216,4.239-1.879,6.258l-0.016,0.047c1.182,2.598,2.236,5.26,3.061,8
						c0.245,0.837,0.464,1.681,0.664,2.53c0.985-1.67,1.872-3.449,2.683-5.301c0.892-2.038,1.658-4.174,2.401-6.324
						c0.738-2.166,1.382-4.335,1.978-6.548c0.649-2.22,1.151-4.47,1.668-6.764c-0.172,1.184-0.367,2.347-0.576,3.493
						c-0.213,1.149-0.478,2.303-0.725,3.432c-0.522,2.236-1.117,4.468-1.786,6.665c-0.659,2.201-1.462,4.343-2.337,6.409
						c-0.879,2.061-1.87,4.044-2.992,5.883l-0.083,0.137c0.684,3.365,0.924,6.844,0.474,10.252c0.398-0.194,2.046-0.894,4.153-2.717
						c2.089-1.808,4.574-4.851,6.308-9.257c1.733-4.354,2.609-9.988,2.038-15.88c-0.135-1.473-0.367-2.934-0.682-4.427
						c-0.159-0.748-0.326-1.513-0.537-2.275c-0.22-0.756-0.461-1.521-0.724-2.293c-1.04-3.097-2.586-6.226-4.617-9.314
						c-4.187-6.316-9.922-11.082-15.8-14.272c-5.897-3.209-11.957-4.84-17.191-5.469c-2.607-0.339-5.058-0.38-7.189-0.341
						c-2.156,0.075-4.03,0.28-5.557,0.499C124.787,267.558,123.06,268.095,123.06,268.095z"/>
					<path style="fill:#008725;" d="M167.289,322.406c1.122-1.838,2.114-3.821,2.992-5.883c0.875-2.066,1.677-4.208,2.337-6.409
						c0.67-2.196,1.265-4.428,1.786-6.665c0.247-1.129,0.512-2.283,0.725-3.432c0.208-1.146,0.403-2.31,0.576-3.493
						c-0.517,2.294-1.019,4.543-1.668,6.764c-0.595,2.213-1.239,4.382-1.978,6.548c-0.744,2.151-1.51,4.286-2.401,6.324
						c-0.811,1.853-1.698,3.631-2.683,5.301c-0.2-0.849-0.419-1.693-0.664-2.53c-0.825-2.739-1.878-5.402-3.061-8l0.016-0.047
						c0.662-2.02,1.335-4.131,1.879-6.258c0.538-2.13,1.083-4.326,1.439-6.548c0.189-1.112,0.392-2.256,0.54-3.385
						c0.148-1.129,0.285-2.274,0.41-3.432c0.232-2.333,0.346-4.645,0.407-7.059c-0.24,2.363-0.443,4.661-0.79,6.946
						c-0.328,2.299-0.67,4.519-1.152,6.742l-0.707,3.273c-0.264,1.092-0.534,2.17-0.82,3.229c-0.481,1.874-1.094,3.751-1.693,5.553
						c-1.477-3.213-3.22-6.294-5.044-9.322l-0.299-0.459c0.327-1.728,0.68-3.536,0.901-5.313c0.227-1.793,0.493-3.65,0.579-5.49
						c0.113-1.85,0.215-3.754,0.209-5.635c-0.015-1.903-0.037-3.837-0.204-5.765l-0.052,2.854c-0.036,0.957-0.077,1.906-0.134,2.845
						c-0.045,0.944-0.086,1.867-0.159,2.801l-0.258,2.785c-0.184,1.824-0.396,3.661-0.672,5.457
						c-0.115,0.769-0.228,1.526-0.359,2.283l-0.44,2.271c-0.981-1.562-2.085-3.04-3.145-4.547c-1.131-1.455-2.224-2.94-3.429-4.335
						l0.004-0.055c0.229-2.836,0.275-5.682,0.173-8.618c-0.071-1.451-0.164-2.924-0.28-4.417c-0.173-1.467-0.343-2.953-0.589-4.461
						c0.063,1.5,0.155,2.982,0.196,4.442c0.057,1.475,0.067,2.952,0.067,4.395c0.01,1.317-0.032,2.659-0.075,3.973
						c-0.05,1.32-0.081,2.597-0.192,3.908c-0.677-0.843-1.435-1.616-2.148-2.427c-0.712-0.814-1.471-1.583-2.227-2.355
						c-1.046-1.093-2.157-2.12-3.262-3.152l-0.008-0.169c-0.067-1.614-0.24-3.173-0.462-4.8c-0.208-1.634-0.528-3.213-0.935-4.846
						c0.085,1.652,0.254,3.239,0.349,4.866l0.27,4.219c-1.146-0.973-2.248-1.995-3.429-2.926c-2.614-2.13-5.379-4.062-8.19-5.909
						c2.743,1.949,5.429,3.975,7.955,6.191c1.109,0.908,2.14,1.908,3.213,2.856c-1.364,0.061-2.706,0.147-4.022,0.294
						c-0.787,0.082-1.595,0.206-2.384,0.323c-0.789,0.147-1.572,0.275-2.342,0.457c0.784-0.014,1.573-0.071,2.372-0.095
						c0.802-0.058,1.597-0.09,2.391-0.106c1.554-0.032,3.174-0.134,4.754-0.138c1.122,1.096,2.256,2.179,3.317,3.336
						c1.462,1.486,2.83,3.062,4.187,4.643c-1.224-0.13-2.494-0.187-3.714-0.249c-1.227-0.055-2.433-0.092-3.663-0.061
						c-1.379,0.023-2.723,0.059-4.067,0.15c-1.358,0.105-2.693,0.242-4.004,0.418c1.334-0.025,2.666-0.05,3.997-0.076
						c1.328,0.01,2.679,0.029,4.053,0.067c1.343,0.037,2.651,0.134,4.011,0.217c1.363,0.08,2.709,0.207,4.067,0.363
						c1.184,1.397,2.271,2.872,3.376,4.331c1.047,1.501,2.135,2.975,3.097,4.533l-2.083-0.442l-2.105-0.369
						c-1.724-0.286-3.42-0.552-5.148-0.688c-0.855-0.081-1.702-0.151-2.542-0.211c-0.844-0.055-1.705-0.08-2.545-0.104
						c-0.843-0.021-1.677-0.03-2.504-0.027c-0.832,0.008-1.678,0.048-2.503,0.091c1.654,0.04,3.289,0.144,4.959,0.274
						c1.691,0.113,3.342,0.31,5.046,0.527c1.718,0.22,3.385,0.492,5.117,0.801c1.65,0.28,3.232,0.66,4.885,1.048l0.397,0.621
						c1.797,2.936,3.538,5.916,5.001,9.037c-1.725-0.613-3.394-1.192-5.131-1.678c-1.013-0.29-2.015-0.569-3.008-0.83
						c-1.012-0.25-2.029-0.473-3.032-0.673c-3.998-0.831-8.025-1.29-11.924-1.422c3.825,0.412,7.821,1.002,11.768,1.953
						c2.008,0.468,3.979,0.999,5.995,1.61c1.952,0.583,3.839,1.277,5.81,2.008c1.228,2.624,2.325,5.31,3.182,8.073
						c0.235,0.762,0.462,1.527,0.66,2.3c-1.562-0.962-3.173-1.792-4.773-2.532c-1.877-0.851-3.759-1.6-5.671-2.223
						c-1.896-0.634-3.846-1.196-5.785-1.685c-1.908-0.499-3.87-0.883-5.79-1.191l2.833,0.697c0.951,0.246,1.873,0.524,2.828,0.805
						c1.916,0.569,3.806,1.182,5.683,1.868c1.872,0.699,3.739,1.431,5.586,2.312c1.818,0.861,3.605,1.844,5.346,3.006
						c0.774,3.369,1.125,6.857,0.782,10.314c0.061,0.045,0.104,0.076,0.104,0.076s0.047-0.021,0.115-0.051
						c0.45-3.407,0.21-6.886-0.474-10.252L167.289,322.406z"/>
				</g>
				<path style="fill:#008725;" d="M170.858,353.34c-4.987-5.709-3.336-23.957-3.096-22.932c-1.666,8.248-2.48,17.789,1.858,23.991
					C170.22,355.258,171.55,354.132,170.858,353.34z"/>
			</g>
		</g>
	</g>
	<g>
		<g>
			<path style="fill:#E3E3E3;" d="M504.798,316.447c1.525-2.936,3.168-5.81,4.938-8.604c14.623-23.088,64.187-87.751,72.068-98.321
				c11.965-16.047,30.422-32.645,23.54-54.963c-2.449-7.943-8.163-12.41-15.906-13.973c-3.418-0.69-6.506-0.379-9.273,0.719
				c0.611-0.242,2.664,2.515,2.97,2.959c0.009,0.013,0.019,0.027,0.03,0.042c5.914,8.192,5.952,19.236-0.122,27.31
				c-13.853,18.414-36.576,48.736-41.45,55.966c-5.143,7.629-27.146,33.95-32.272,40.026c-0.532,0.631-1.257,1.098-2.123,1.838
				c-0.392-9.268-1.44-12.388-5.221-15.995c-6.218-5.931-15.835-7.974-23.295-3.743c-5.161,2.928-9.761,7.088-14.01,11.304
				c-3.592,3.564-7.143,6.217-12.253,7.527c-5.79,1.484-11.224,4.409-16.749,6.853c-2.465,1.09-4.772,2.535-7.787,4.163
				c1.837-13.343-4.747-21.55-14.709-27.905c-8.978-5.728-17.591-5.643-26.073,0.851c-3.692,2.826-7.07,6.164-10.145,9.662
				c-2.839,3.23-7.079,8.213-11.138,9.584c-6.995,2.363-21.966,6.855-23.529,7.731c-0.053-1.194-0.131-1.741-0.092-2.28
				c0.916-12.742-5.697-21.302-19.41-27.801c-14.617-6.928-24.704,5.062-32.995,15.32c-8.61,10.653-17.603,20.997-26.957,31.003
				c-7.981,8.538-18.087,15.685-30.473,14.097c-1.203-0.151-8.13-2.12-6.386-4.705c17.405-25.791,74.273-107.361,95.796-135.293
				H289.63c-15.485,22.32-92.1,134.784-122.6,179.574c7.377,3.313,14.438,7.158,21.197,11.454
				c11.908-17.535,23.879-35.182,31.174-45.993c4.863,5.166,13.327,5.456,19.929,4.617c4.77-0.607,11.608-1.158,16.129-2.789
				c-0.626,1.924-1.171,3.576-1.593,5.253c-1.969,7.812-0.704,14.987,4.968,20.916c17.733,18.538,46.4,0.675,59.622-14.389
				c7.484-8.527,11.987-18.564,16.706-28.763c2.926-6.323,20.386-14.858,24.638-17.134c-3.122,5.694-18.843,31.575-21.104,42.054
				c-3.939,18.257,16.792,26.559,35.233,23.594c9.414-1.513,17.016-6.408,23.668-12.791c14.088-13.519,17.62-22.526,25.743-40.215
				c0.567-1.235,0.974-2.9,1.978-3.523c7.319-4.544,14.768-8.876,22.178-13.273c0.492,0.55,0.386,0.432,0.877,0.982
				c-0.827,1.081-1.662,2.156-2.479,3.245c-8.609,11.48-15.681,26.075-19.995,40.019c-2.327,7.524,7.43,23.839,22.378,19.514
				c3.761-1.088,7.697-2.467,10.863-4.702c5.032-3.553,9.532-7.872,14.172-11.964c2.903-2.56,5.649-5.297,8.58-8.062
				c0,2.232-0.204,4.445,0.032,6.61c2.037,18.664,14.534,24.491,29.174,12.739c4.774-3.833,9.109-8.173,13.319-12.608l0.146-0.154
				c-1.445-1.639-0.915-1.038-2.361-2.677l-0.777,0.571c-4.485,3.296-8.86,6.986-13.731,9.701c-6.139,3.423-7.645-3.99-5.946-8.514
				C502.61,320.826,503.672,318.614,504.798,316.447z M322.353,309.114c-3.416,5.441-6.219,11.391-10.374,16.331
				c-6.151,7.314-15.079,14.526-24.763,16.095c-1.472,0.238-3.008,0.334-4.429-0.115c-2.438-0.771-3.435-3.039-3.697-5.407
				c-0.995-8.967,4.181-20.043,8.107-27.866c1.306-2.601,2.796-5.112,4.357-7.568c0.76-1.196,6.24-7.681,5.907-8.651
				c4.91,14.318,20.7,13.698,30.268,7.904C325.709,303.335,324.129,306.286,322.353,309.114z M329.422,289.201
				c-2.919,2.971-6.506,4.951-10.345,6.542c-2.523,1.045-5.389,1.614-7.981,0.755c-4.76-1.578-4.886-6.778-4.143-10.941
				c1.14-6.386,5.82-13.125,10.906-17.134c5.401-4.257,14.153-4.683,16.784,2.855C336.906,277.761,334.2,284.337,329.422,289.201z
				 M373.312,341.422c-3.815,0.671-7.638-0.031-8.408-4.401c-0.568-3.223-2.162-23.03,18.617-45.282
				c1.203,10.487,16.992,16.059,29.82,7.92C412.738,301.059,392.971,337.966,373.312,341.422z M421.14,279.127
				c-0.57,2.558-2.974,6.228-6.21,9.616c-6.546,6.854-16.496,12.555-21.548,5.563c-7.285-10.085,8.639-31.641,20.165-29.463
				C419.876,266.04,422.405,273.449,421.14,279.127z M498.089,270.576c-0.729,5.562-2.634,10.85-5.09,15.9
				c-1.911,3.928-4.156,7.713-6.44,11.37c-5.285,8.461-11.722,16.527-18.89,23.627c-1.755,1.739-14.478,15.303-15.273,7.101
				c-0.101-1.044,0.216-2.078,0.529-3.079c3.8-12.144,8.906-24.22,15.884-35.016c3.524-5.452,7.531-10.594,12.038-15.269
				c3.635-3.772,9.544-10.824,14.911-11.803C499.385,262.745,498.389,268.292,498.089,270.576z"/>
			<path style="fill:#E3E3E3;" d="M631.65,200.132c-31.092,37.448-57.486,79.452-86.358,118.623
				c-16.449,22.316-31.733,46.465-54.135,63.42c-25.158,19.041-57.348,27.088-88.622,23.614
				c-40.579-4.507-76.102-27.279-112.284-44.316c-37.853-17.824-81.268-33.293-123.851-29.376
				c-39.858,3.666-61.733,35.062-62.436,73.496c10.846-11.133,24.911-18.848,40.707-23.038
				c50.111-13.291,102.085,3.045,149.271,19.647c30.806,10.839,61.578,22.419,93.755,28.003
				c38.009,6.596,78.809,3.698,110.678-19.785c28.563-21.046,47.591-51.824,65.048-82.071
				c19.978-34.615,42.016-68.572,64.712-101.494c6.364-9.232,12.688-19.371,20.824-27.194c8.982-8.636,20.699-10.113,22.04-10.439
				C670.916,189.243,647.722,180.776,631.65,200.132z"/>
			<path style="fill:#E3E3E3;" d="M430.978,111.615c-0.62-0.202-1.204-0.349-1.77-0.469c7.339,4.366,10.907,14.724,10.194,23.185
				c-1.978,23.455-27.374,31.783-46.893,33.104c-26.894,1.82-52.629-5.722-78.82-10.564c-27.257-5.039-55.402-8.227-82.755-2.023
				c-29.052,6.589-57.412,24.893-69.367,53.04c-9.918,23.35-7.397,50.797,7.911,70.658c-2.484-4.533-4.531-9.304-6.015-14.306
				c-6.249-21.049-1.109-43.176,13.108-59.806c35.616-41.66,97.553-33.012,145.298-24.748c36.684,6.349,86.86,21.691,118.189-6.954
				C459.799,155.119,458.269,120.517,430.978,111.615z"/>
			<path style="fill:#E3E3E3;" d="M285.033,217.499c-0.854-0.169-10.224,13.607-13.622,17.544l41.722,0.37
				c18.645,0.165,36.121-9.354,45.841-25.266c0.622-1.019,1.059-1.808,1.245-2.281C334.569,221.421,294.698,219.416,285.033,217.499
				z"/>
		</g>
		<g>
			<path style="fill:#DE3134;" d="M498.994,307.741c1.525-2.936,3.168-5.81,4.938-8.605c14.623-23.088,64.187-87.751,72.068-98.321
				c11.965-16.047,30.422-32.645,23.54-54.963c-2.449-7.943-8.163-12.41-15.906-13.973c-3.418-0.69-6.506-0.379-9.273,0.719
				c0.611-0.242,2.664,2.515,2.97,2.959c0.009,0.013,0.019,0.027,0.03,0.042c5.914,8.192,5.952,19.236-0.122,27.31
				c-13.853,18.414-36.576,48.736-41.45,55.966c-5.143,7.629-27.146,33.95-32.272,40.026c-0.532,0.631-1.257,1.098-2.123,1.838
				c-0.392-9.268-1.44-12.388-5.221-15.995c-6.218-5.931-15.835-7.974-23.295-3.743c-5.161,2.928-9.761,7.088-14.01,11.304
				c-3.592,3.564-7.143,6.217-12.253,7.527c-5.79,1.484-11.224,4.409-16.749,6.853c-2.465,1.09-4.772,2.535-7.787,4.163
				c1.837-13.343-4.747-21.55-14.709-27.905c-8.978-5.728-17.591-5.643-26.073,0.851c-3.692,2.826-7.07,6.164-10.145,9.662
				c-2.839,3.23-7.079,8.213-11.138,9.584c-6.995,2.363-21.966,6.855-23.529,7.731c-0.053-1.194-0.131-1.741-0.092-2.28
				c0.916-12.742-5.697-21.302-19.41-27.801c-14.617-6.928-24.704,5.062-32.995,15.32c-8.61,10.653-17.603,20.996-26.957,31.003
				c-7.981,8.538-18.087,15.685-30.473,14.097c-1.203-0.151-8.13-2.12-6.386-4.705c17.405-25.791,74.273-107.361,95.796-135.293
				h-32.142c-15.485,22.32-92.1,134.784-122.6,179.574c7.377,3.313,14.438,7.158,21.197,11.454
				c11.908-17.535,23.879-35.182,31.174-45.993c4.863,5.166,13.327,5.456,19.929,4.617c4.77-0.607,11.608-1.158,16.129-2.789
				c-0.626,1.924-1.171,3.576-1.593,5.253c-1.969,7.812-0.704,14.987,4.968,20.916c17.733,18.538,46.4,0.675,59.622-14.389
				c7.484-8.527,11.987-18.564,16.706-28.763c2.926-6.323,20.386-14.858,24.638-17.134c-3.122,5.694-18.843,31.575-21.104,42.054
				c-3.939,18.257,16.792,26.559,35.233,23.594c9.414-1.513,17.016-6.408,23.668-12.791c14.088-13.519,17.62-22.526,25.743-40.215
				c0.567-1.235,0.974-2.9,1.978-3.523c7.319-4.544,14.768-8.876,22.178-13.273c0.492,0.55,0.386,0.432,0.877,0.982
				c-0.827,1.081-1.662,2.156-2.479,3.245c-8.609,11.48-15.681,26.075-19.995,40.019c-2.327,7.524,7.43,23.839,22.378,19.514
				c3.761-1.088,7.697-2.467,10.863-4.702c5.032-3.553,9.532-7.872,14.172-11.964c2.903-2.56,5.649-5.297,8.58-8.062
				c0,2.232-0.204,4.445,0.032,6.61c2.037,18.664,14.534,24.491,29.174,12.739c4.774-3.833,9.109-8.173,13.319-12.608l0.146-0.154
				c-1.445-1.639-0.915-1.038-2.361-2.677l-0.777,0.571c-4.485,3.296-8.86,6.986-13.731,9.701c-6.139,3.423-7.645-3.99-5.946-8.514
				C496.806,312.12,497.868,309.908,498.994,307.741z M316.549,300.408c-3.416,5.441-6.219,11.391-10.374,16.331
				c-6.151,7.314-15.079,14.526-24.763,16.095c-1.472,0.238-3.008,0.334-4.429-0.115c-2.438-0.771-3.435-3.039-3.697-5.407
				c-0.995-8.967,4.181-20.043,8.107-27.866c1.306-2.601,2.796-5.112,4.357-7.568c0.76-1.196,6.24-7.68,5.907-8.651
				c4.91,14.318,20.7,13.698,30.268,7.904C319.905,294.629,318.325,297.58,316.549,300.408z M323.618,280.495
				c-2.919,2.972-6.506,4.951-10.345,6.542c-2.523,1.045-5.389,1.614-7.981,0.755c-4.76-1.578-4.886-6.778-4.143-10.941
				c1.14-6.386,5.82-13.125,10.906-17.134c5.401-4.257,14.153-4.683,16.784,2.855C331.103,269.055,328.396,275.631,323.618,280.495z
				 M367.508,332.716c-3.815,0.671-7.638-0.031-8.407-4.401c-0.568-3.223-2.162-23.03,18.617-45.282
				c1.203,10.487,16.992,16.059,29.82,7.92C406.934,292.353,387.167,329.26,367.508,332.716z M415.336,270.421
				c-0.57,2.558-2.974,6.228-6.21,9.616c-6.546,6.854-16.496,12.555-21.548,5.563c-7.285-10.085,8.639-31.641,20.165-29.463
				C414.072,257.334,416.601,264.743,415.336,270.421z M492.285,261.87c-0.729,5.562-2.634,10.85-5.09,15.9
				c-1.911,3.928-4.156,7.713-6.44,11.37c-5.285,8.461-11.722,16.527-18.89,23.628c-1.755,1.739-14.478,15.303-15.273,7.101
				c-0.101-1.044,0.216-2.078,0.529-3.079c3.8-12.144,8.906-24.22,15.884-35.016c3.524-5.452,7.531-10.594,12.038-15.269
				c3.635-3.772,9.544-10.824,14.911-11.803C493.581,254.039,492.585,259.586,492.285,261.87z"/>
			<path style="fill:#DE3134;" d="M625.846,191.426c-31.092,37.448-57.486,79.452-86.358,118.623
				c-16.449,22.316-31.733,46.465-54.135,63.42c-25.158,19.041-57.348,27.088-88.622,23.614
				c-40.579-4.507-76.101-27.279-112.284-44.316c-37.853-17.824-81.268-33.293-123.851-29.376
				c-39.858,3.666-61.733,35.062-62.436,73.496c10.846-11.133,24.911-18.848,40.707-23.038
				c50.111-13.291,102.085,3.045,149.271,19.647c30.806,10.839,61.578,22.419,93.755,28.003
				c38.009,6.596,78.809,3.698,110.678-19.785c28.563-21.046,47.591-51.824,65.048-82.071
				c19.978-34.615,42.016-68.572,64.712-101.494c6.364-9.232,12.688-19.371,20.824-27.194c8.982-8.636,20.699-10.113,22.04-10.439
				C665.112,180.538,641.918,172.07,625.846,191.426z"/>
			<path style="fill:#DE3134;" d="M425.174,102.909c-0.62-0.202-1.204-0.349-1.77-0.469c7.339,4.366,10.907,14.724,10.194,23.185
				c-1.978,23.455-27.374,31.783-46.893,33.104c-26.894,1.82-52.629-5.722-78.82-10.564c-27.257-5.039-55.402-8.227-82.755-2.023
				c-29.052,6.589-57.412,24.893-69.367,53.04c-9.918,23.35-7.397,50.797,7.911,70.658c-2.484-4.533-4.531-9.304-6.015-14.306
				c-6.249-21.049-1.109-43.176,13.108-59.806c35.616-41.66,97.553-33.012,145.298-24.748c36.684,6.349,86.86,21.691,118.189-6.954
				C453.995,146.413,452.465,111.811,425.174,102.909z"/>
			<path style="fill:#DE3134;" d="M279.229,208.793c-0.854-0.169-10.224,13.607-13.622,17.544l41.722,0.37
				c18.645,0.165,36.121-9.354,45.841-25.266c0.622-1.019,1.059-1.808,1.245-2.281C328.765,212.715,288.894,210.71,279.229,208.793z
				"/>
		</g>
	</g>
	<g>
		<path id="SVGID_x5F_1_x5F_" style="fill:none;" d="M143.996,216.178c-6.985-28.478,27.019-59.902,39.762-66.628
			c58.03-30.627,124.449-10.936,133.792-10.209"/>
		<text>		<textPath  xlink:href="#SVGID_x5F_1_x5F_" startOffset="5.112%">
<tspan  style="fill:#FFC42E; font-family:'Selima'; font-size:82.7472px;">World</tspan>		</textPath>
</text>
		<text transform="matrix(1 0 0 1 377.0259 389.0366)" style="fill:#FFC42E; font-family:'Selima'; font-size:75.0674px;">day</text>
	</g>
	<g>
		<g>
			<path style="fill:#E6292D;" d="M143.109,335.282c-8.106-12.752-3.304-28.031,9.447-36.137
				c12.752-8.106,28.625-5.968,36.731,6.783c8.106,12.752,3.861,28.906-8.891,37.012
				C167.645,351.046,151.215,348.033,143.109,335.282z"/>
			<path style="fill:#DE3134;" d="M179.465,341.474c-12.125,7.708-27.45,4.578-34.889-7.124c-3.59-5.647-4.616-12.187-2.89-18.415
				c1.697-6.122,5.888-11.565,11.803-15.324c5.915-3.76,12.622-5.246,18.885-4.183c6.372,1.081,11.858,4.786,15.448,10.432
				C195.26,318.562,191.589,333.766,179.465,341.474z"/>
			<path style="fill:#FF595D;" d="M178.533,340.008c-11.303,7.185-25.575,4.29-32.491-6.59c-3.371-5.302-4.298-11.188-2.682-17.019
				c1.582-5.707,8.499-6.09,14.051-9.619c5.551-3.529,8.834-9.63,14.673-8.64c5.966,1.012,10.902,4.349,14.272,9.652
				C193.272,318.672,189.836,332.823,178.533,340.008z"/>
			<path style="fill:#F74345;" d="M158.422,324.239c3.705,3.986,8.762,6.251,13.966,7.552l-15.646-24.613
				c-1.114,0.649-2.268,1.196-3.417,1.691C152.129,314.26,154.792,320.333,158.422,324.239z"/>
			<path style="fill:#F74345;" d="M173.035,314.949c2.037,5.047,1.941,10.587,0.91,15.851L158.3,306.187
				c1.061-0.733,2.045-1.546,2.982-2.376C166.671,305.016,171.04,310.005,173.035,314.949z"/>
			
				<rect x="165.962" y="301.325" transform="matrix(0.8439 -0.5365 0.5365 0.8439 -147.0859 140.3726)" style="fill:#DE3134;" width="3.474" height="43.282"/>
			<g>
				<path style="fill:#FFC42E;" d="M146.247,318.6c0.759-0.157,3.506-0.019,3.68,0.819c0.174,0.838-2.292,2.057-3.051,2.215
					c-0.759,0.157-1.515-0.394-1.689-1.232C145.013,319.564,145.487,318.757,146.247,318.6z"/>
				<path style="fill:#FFC42E;" d="M145.845,326.411c0.622-0.464,3.17-1.499,3.681-0.813c0.511,0.686-1.208,2.833-1.829,3.297
					c-0.622,0.464-1.54,0.283-2.051-0.403C145.135,327.806,145.224,326.875,145.845,326.411z"/>
				<path style="fill:#FFC42E;" d="M148.783,333.66c0.367-0.683,2.239-2.698,2.993-2.292c0.753,0.405,0.103,3.078-0.265,3.761
					c-0.367,0.683-1.276,0.907-2.029,0.502C148.728,335.225,148.415,334.343,148.783,333.66z"/>
				<path style="fill:#FFC42E;" d="M154.509,338.988c0.044-0.774,0.89-3.392,1.744-3.343c0.854,0.049,1.394,2.746,1.35,3.52
					c-0.044,0.774-0.773,1.362-1.627,1.313C155.121,340.43,154.464,339.762,154.509,338.988z"/>
				<path style="fill:#FFC42E;" d="M161.105,341.259c-0.287-0.72-0.627-3.45,0.168-3.766c0.795-0.316,2.424,1.9,2.711,2.62
					c0.287,0.72-0.125,1.561-0.92,1.877C162.269,342.307,161.392,341.98,161.105,341.259z"/>
				<path style="fill:#FFC42E;" d="M168.013,340.788c-0.468-0.618-1.522-3.159-0.84-3.675c0.682-0.516,2.842,1.187,3.31,1.805
					c0.468,0.618,0.294,1.538-0.388,2.054C169.414,341.488,168.481,341.406,168.013,340.788z"/>
			</g>
			<g>
				<path style="fill:#FFC42E;" d="M172.508,302.516c-0.465,0.621-1.505,3.167-0.82,3.68c0.685,0.513,2.835-1.202,3.3-1.823
					c0.465-0.621,0.286-1.539-0.398-2.052C173.904,301.808,172.972,301.895,172.508,302.516z"/>
				<path style="fill:#FFC42E;" d="M179.751,305.468c-0.683,0.366-2.702,2.234-2.298,2.988c0.404,0.754,3.078,0.109,3.761-0.257
					c0.683-0.366,0.91-1.274,0.506-2.028C181.316,305.416,180.434,305.102,179.751,305.468z"/>
				<path style="fill:#FFC42E;" d="M185.068,311.204c-0.774,0.043-3.393,0.883-3.346,1.737c0.047,0.854,2.743,1.399,3.517,1.357
					c0.774-0.043,1.363-0.77,1.316-1.625C186.508,311.819,185.842,311.161,185.068,311.204z"/>
				<path style="fill:#FFC42E;" d="M187.462,318.65c-0.72-0.288-3.448-0.634-3.766,0.16c-0.318,0.794,1.895,2.428,2.615,2.716
					c0.72,0.288,1.561-0.122,1.879-0.916C188.507,319.816,188.182,318.938,187.462,318.65z"/>
				<path style="fill:#FFC42E;" d="M186.719,325.587c-0.53-0.565-2.857-2.032-3.481-1.447c-0.624,0.585,0.692,3.001,1.222,3.566
					c0.53,0.565,1.466,0.549,2.09-0.036C187.173,327.085,187.249,326.152,186.719,325.587z"/>
				<path style="fill:#FFC42E;" d="M183.36,331.642c-0.361-0.686-2.215-2.719-2.972-2.32c-0.757,0.398-0.131,3.077,0.23,3.763
					c0.361,0.686,1.268,0.919,2.025,0.521C183.4,333.207,183.721,332.328,183.36,331.642z"/>
			</g>
			<path style="fill:#A1C858;" d="M160.985,288.97c-2.104,1.843-4.707,3.607-6.191,6.024c-0.229,0.372-0.649,1.174-1.068,2.129
				c-0.073-0.148-0.146-0.295-0.221-0.429c-1.037-1.865-2.79-3.268-4.832-3.884c-0.107-0.032-0.262,0.031-0.234,0.17
				c0.395,1.939,0.567,4.156,1.532,5.915c0.126,0.229,0.391,0.649,0.736,1.131c-1.586-0.138-3.183-0.084-3.808-0.013
				c-2.819,0.318-5.52,1.926-8.082,3.049c-0.183,0.08-0.13,0.311-0.006,0.408c2.375,1.858,5.425,2.739,8.424,2.418
				c4.81-0.515,10.226-3.955,12.737-8.096c1.564-2.58,2.06-5.716,1.386-8.654C161.322,288.984,161.135,288.838,160.985,288.97z"/>
		</g>
		<g>
			<g>
				<path style="fill:#FFBE19;" d="M283.275,90.25c0.016,1.387,0.633,2.686,1.589,3.716c1.386,2.247,14.94,18.607,49.455,26.614
					c33.912,10.267,60.883,1.803,63.204,0.546c1.342-0.416,2.525-1.234,3.23-2.429c2.409-4.211-0.873-12.351-4.38-17.513
					c-2.165-3.187-5.522-5.339-9.333-5.907c-11.826-1.763-25.495,1.34-46.3-4.907c-21.222-4.975-24.966-10.121-35.755-14.43
					c-3.525-1.408-7.481-1.157-10.757,0.76C289.123,79.689,283.287,85.463,283.275,90.25z"/>
				<path style="fill:#DE3134;" d="M398.869,96.537c-39.757,8.277-75.56,4.979-102.911-24.557
					c-8.076-10.601-28.009-0.299-17.639,13.491c34.083,42.647,78.305,51.53,129.113,31.555
					C423.274,110.254,411.179,91.364,398.869,96.537z"/>
				<path style="fill:#FFC42E;" d="M402.536,108.546c-0.72-0.186-1.48-0.293-2.278-0.312c-1.904-0.044-3.755,0.557-5.582,1.095
					c-14.693,4.328-29.386,4.328-44.402,2.013c-18.486-2.849-38.499-8.756-52.778-21.387c-4.74-4.193-8.251-11.304-15.585-9.34
					c-5.664,1.516-10.802,7.248-13.224,12.399c-5.352,11.38,10.895,26.554,18.342,32.419c18.469,14.545,43.197,21.517,66.349,23.199
					c15.419,1.12,31.323-0.779,45.935-5.916c7.274-2.558,11.99-10.131,12.651-17.602
					C412.524,118.765,409.235,110.274,402.536,108.546z"/>
			</g>
			<path style="fill:#FFCF54;" d="M407.133,114.84c-3.762-3.493-8.447-3.828-13.277-2.546c-5.899,1.565-11.419,3.965-17.455,5.144
				c-12.545,2.452-25.647,2.027-38.065-0.932c-11.906-2.837-23.268-8.026-33.058-15.395c-7.577-5.704-17.721-18.82-28.195-10.857
				c-2.589,1.968-0.041,6.415,2.584,4.42c6.328-4.811,12.558,2.028,17.077,6.023c3.856,3.41,8.003,6.507,12.381,9.215
				c9.008,5.572,19.036,9.581,29.37,11.88c10.103,2.247,20.597,2.924,30.893,1.83c5.13-0.545,10.222-1.464,15.19-2.863
				c5.351-1.507,14.044-6.842,18.936-2.3C405.925,120.699,409.553,117.087,407.133,114.84z"/>
		</g>
		<g>
			<g>
				<g>
					<g>
						<path style="fill:#FFBE19;" d="M473.117,160.394c2.052,2.862,2.325,6.624,2.098,10.138
							c-0.598,9.281-4.254,18.339-10.266,25.436l3.374,2.419c4.79-7.972,12.195-14.342,20.793-17.889
							c3.255-1.343,6.905-2.292,10.275-1.268L473.117,160.394z"/>
						<path style="fill:#FFC42E;" d="M542.99,54.14l33.821,24.245c1.452,1.041,1.786,3.063,0.745,4.515l-62.037,86.537
							c-1.041,1.452-3.063,1.786-4.515,0.745l-33.821-24.245c-1.452-1.041-1.786-3.063-0.745-4.515l62.037-86.537
							C539.516,53.432,541.538,53.098,542.99,54.14z"/>
						<path style="fill:#FFC42E;" d="M542.99,54.14l33.821,24.245c1.452,1.041,1.786,3.063,0.745,4.515l-62.037,86.537
							c-1.041,1.452-3.063,1.786-4.515,0.745l-33.821-24.245c-1.452-1.041-1.786-3.063-0.745-4.515l62.037-86.537
							C539.516,53.432,541.538,53.098,542.99,54.14z"/>
						<g>
							<path style="fill:#FFBE19;" d="M546.884,109.714l-15.819,22.067c-12.479,17.407-36.706,21.402-54.112,8.923l0,0l-0.514,0.718
								c-1.041,1.453-0.708,3.474,0.744,4.515l33.821,24.245c1.452,1.041,3.474,0.708,4.515-0.745L577.555,82.9
								c1.041-1.452,0.708-3.474-0.744-4.515L542.99,54.14c-1.452-1.041-3.474-0.708-4.515,0.745l-0.514,0.718l0,0
								C555.367,68.08,559.362,92.307,546.884,109.714z"/>
						</g>
						<g>
							<path style="fill:#FFC42E;" d="M475.314,144.597l37.558,26.924c0.421,0.301,0.517,0.887,0.216,1.307l-7.134,9.952
								c-0.301,0.421-0.887,0.517-1.307,0.216l-37.558-26.924c-0.421-0.301-0.517-0.887-0.216-1.307l7.134-9.952
								C474.308,144.392,474.893,144.296,475.314,144.597z"/>
						</g>
					</g>
					<g>
						
							<rect x="504.979" y="167.97" transform="matrix(-0.8127 -0.5826 0.5826 -0.8127 814.628 611.8907)" style="fill:#FFBB00;" width="1.339" height="14.119"/>
						
							<rect x="501.497" y="165.474" transform="matrix(-0.8127 -0.5826 0.5826 -0.8127 809.7704 605.3371)" style="fill:#FFBB00;" width="1.339" height="14.119"/>
						
							<rect x="498.015" y="162.978" transform="matrix(-0.8127 -0.5826 0.5826 -0.8127 804.9128 598.7834)" style="fill:#FFBB00;" width="1.339" height="14.119"/>
						
							<rect x="494.533" y="160.482" transform="matrix(-0.8127 -0.5826 0.5826 -0.8127 800.0552 592.2297)" style="fill:#FFBB00;" width="1.339" height="14.119"/>
						
							<rect x="491.051" y="157.986" transform="matrix(-0.8127 -0.5826 0.5826 -0.8127 795.1977 585.6761)" style="fill:#FFBB00;" width="1.339" height="14.119"/>
						
							<rect x="487.569" y="155.49" transform="matrix(-0.8127 -0.5826 0.5826 -0.8127 790.3401 579.1225)" style="fill:#FFBB00;" width="1.339" height="14.119"/>
						
							<rect x="484.087" y="152.993" transform="matrix(-0.8127 -0.5826 0.5826 -0.8127 785.4826 572.5689)" style="fill:#FFBB00;" width="1.339" height="14.119"/>
						
							<rect x="480.605" y="150.497" transform="matrix(-0.8127 -0.5826 0.5826 -0.8127 780.6249 566.0151)" style="fill:#FFBB00;" width="1.339" height="14.119"/>
						
							<rect x="477.123" y="148.001" transform="matrix(-0.8127 -0.5826 0.5826 -0.8127 775.7674 559.4615)" style="fill:#FFBB00;" width="1.339" height="14.119"/>
						
							<rect x="473.641" y="145.505" transform="matrix(-0.8127 -0.5826 0.5826 -0.8127 770.9099 552.9079)" style="fill:#FFBB00;" width="1.339" height="14.119"/>
					</g>
				</g>
				<path style="fill:#FFCF54;" d="M533.383,69.234c-14.701,20.04-29.401,40.08-44.102,60.12c-1.951,2.66,2.176,5.688,4.127,3.028
					c14.701-20.04,29.401-40.08,44.102-60.12C539.461,69.602,535.335,66.574,533.383,69.234z"/>
			</g>
			<g>
				<path style="fill:#FFBE19;" d="M464.594,202.723c-23.375,30.03-61.734,32.905-72.477,35.036
					c-5.531,1.097-37.932,8.025-28.833,18.666c1.409,1.648,3.618,2.45,5.783,2.568c5.115,0.278,9.37-2.366,13.665-4.744
					c8.855-4.901,21.629-9.01,30.432-1.751c2.256,1.861,3.8,4.975,6.642,6.048c1.89,0.714,4.03-0.212,4.452-2.29
					c0.486-2.398-1.241-4.756-2.842-6.318c-1.976-1.929-4.909-4.358-2.974-7.353c1.221-1.89,4.126-3.178,6.015-4.305
					c4.203-2.506,8.218-5.334,12.562-7.608C455.21,221.15,464.659,202.64,464.594,202.723z"/>
				<path style="fill:#FFCF54;" d="M382.162,246.446c-2.479,1.182-5.977,2.946-8.846,2.869c-1.229-0.033-2.298-0.338-3.393-0.551
					c-0.54-0.489-1.307-0.701-2.24-0.353c-0.172,0.064-0.316,0.143-0.47,0.216c-0.087,0.011-0.168,0.012-0.256,0.027
					c-1.267,0.218-1.82,1.105-1.842,2.072c-0.881,2.313,0.962,5.278,4.021,5.897c5.346,1.082,11.484-2.784,15.609-5.757
					C387.413,248.943,385.163,245.015,382.162,246.446z"/>
			</g>
		</g>
		<g>
			<path style="fill:#BDD264;" d="M201.458,258.035c0.683-1.545,1.152-3.081,1.377-4.697c4.431-13.579,12.061-25.852,22.178-35.922
				c3.311-3.296-1.839-8.41-5.154-5.111c-5.265,5.241-9.872,11.043-13.782,17.28c-0.093-0.029-0.187-0.058-0.287-0.081
				c-0.443-0.104-0.886-0.209-1.33-0.313c1.759-5.142,2.227-10.723,2.339-16.515c0.065-3.342-5.12-3.315-5.184,0.022
				c-0.104,5.371-0.438,10.57-2.181,15.31c-0.306-0.072-0.613-0.144-0.919-0.216c-0.422-0.099-0.82-0.128-1.192-0.099
				c-1.439-7.14-4.421-13.964-8.852-19.767c-1.199-1.57-3.085-2.389-4.955-1.344c-1.536,0.859-2.532,3.399-1.344,4.955
				c5.135,6.726,8.221,15.043,8.819,23.477c0.305,4.297-0.041,8.652-1.147,12.82c-0.874,3.293-4.604,8.515,0.401,10.31
				c2.627,0.942,5.291,1.453,8.063,1.742C199.471,260.006,200.989,259.094,201.458,258.035z"/>
			<path style="fill:#009C3E;" d="M243.396,200.282c-1.283-3.861-4.301-6.78-7.925-8.252c0.072,0.029,0.312-5.755,0.264-6.305
				c-0.193-2.197-0.687-4.368-1.499-6.419c-6.386-16.125-29.45-21.357-42.072-9.385c-4.072,3.863-6.644,8.902-7.615,14.219
				c-3.68-0.201-7.576,1.257-10.315,3.855c-5.225,4.956-6.035,13.381-1.724,19.182c2.044,2.751,5.062,4.795,8.486,5.312
				c3.539,0.535,7.397-0.431,10.504-2.149c0.739-0.409,1.427-0.889,2.066-1.424c3.08,2.487,6.735,4.234,10.697,4.833
				c4.239,0.641,8.732,0.074,12.907-1.29c0.234,0.391,0.489,0.774,0.765,1.145c2.044,2.751,5.062,4.795,8.486,5.312
				c3.539,0.535,7.397-0.431,10.504-2.149C242.59,213.636,245.451,206.463,243.396,200.282z"/>
			<path style="opacity:0.27;fill:#A1C858;" d="M232.82,216.269c-5.818-1.566-13.17-5.138-15.694-11.05
				c-2.27,1.386-4.599,2.706-7.268,3.108c-2.557,0.385-5.221-0.017-7.649-0.865c-2.849-0.996-8.426-3.367-9.215-6.936
				c-2.421,0.912-4.907,1.72-7.524,1.468c-3.116-0.301-6.055-1.999-7.95-4.475c-2.973-3.885-2.936-8.716-0.062-11.794
				c-1.175,0.606-2.271,1.368-3.224,2.272c-5.225,4.956-6.035,13.381-1.724,19.182c2.044,2.751,5.062,4.795,8.486,5.312
				c3.539,0.535,7.397-0.431,10.504-2.149c0.739-0.409,1.427-0.889,2.066-1.424c3.08,2.487,6.735,4.234,10.697,4.833
				c4.239,0.641,8.732,0.074,12.907-1.29c0.234,0.391,0.489,0.774,0.765,1.145c2.044,2.751,5.062,4.795,8.486,5.312
				c3.388,0.512,7.066-0.353,10.099-1.934C235.288,216.837,234.053,216.601,232.82,216.269z"/>
			<path style="fill:#00A341;" d="M207.584,166.602c-8.446-0.201-15.411,5.368-17.029,12.674c-0.576,2.602,2.31,4.37,3.616,2.033
				c3.033-5.424,6.544-10.724,13.43-10.559C210.275,170.814,210.253,166.666,207.584,166.602z"/>
			<path style="fill:#00A341;" d="M215.768,167.971c-1.895-1.879-4.818,1.063-2.92,2.945
				C214.743,172.795,217.666,169.853,215.768,167.971z"/>
		</g>
	</g>
</g>
</svg>
